<svg xmlns="http://www.w3.org/2000/svg" xmlns:xlink="http://www.w3.org/1999/xlink" width="500" zoomAndPan="magnify" viewBox="0 0 375 374.999991" height="500" preserveAspectRatio="xMidYMid meet" version="1.0"><defs><clipPath id="65812d1e17"><path d="M 189 70.074219 L 230 70.074219 L 230 109 L 189 109 Z M 189 70.074219 " clip-rule="nonzero"/></clipPath></defs><path fill="#8c52ff" d="M 299.449219 236.605469 C 297.464844 234.148438 294.175781 233.167969 291.171875 234.140625 C 273.90625 239.75 255.394531 240.535156 237.625 236.417969 C 183.671875 223.9375 149.929688 169.894531 162.410156 115.941406 C 164.722656 105.957031 168.496094 96.449219 173.640625 87.699219 C 175.246094 84.976562 174.996094 81.546875 173.011719 79.085938 C 171.039062 76.625 167.75 75.644531 164.738281 76.617188 C 146.097656 82.667969 129.175781 93.4375 115.796875 107.75 C 102 122.511719 92.285156 140.78125 87.703125 160.574219 C 73.332031 222.6875 112.179688 284.921875 174.292969 299.292969 C 198.769531 304.945312 223.832031 302.621094 246.777344 292.542969 C 268.953125 282.808594 287.875 266 300.074219 245.21875 C 301.671875 242.496094 301.421875 239.066406 299.449219 236.605469 " fill-opacity="1" fill-rule="nonzero"/><path fill="#8c52ff" d="M 270.691406 143.855469 C 269.914062 141.15625 267.53125 139.230469 264.714844 139.03125 L 247.113281 137.84375 L 240.8125 121.839844 C 239.8125 119.289062 237.34375 117.605469 234.59375 117.605469 C 231.835938 117.605469 229.378906 119.289062 228.367188 121.839844 L 222.066406 137.84375 L 204.460938 139.03125 C 201.65625 139.230469 199.265625 141.15625 198.488281 143.855469 C 197.714844 146.558594 198.703125 149.464844 200.984375 151.121094 L 215.007812 161.3125 L 209.867188 178.8125 C 209.0625 181.5625 210.089844 184.515625 212.429688 186.167969 C 214.765625 187.816406 217.898438 187.796875 220.214844 186.113281 L 234.59375 175.671875 L 248.964844 186.113281 C 250.140625 186.964844 251.515625 187.394531 252.898438 187.394531 C 254.246094 187.394531 255.59375 186.984375 256.75 186.167969 C 259.089844 184.515625 260.117188 181.5625 259.3125 178.8125 L 254.171875 161.3125 L 268.195312 151.121094 C 270.476562 149.464844 271.464844 146.558594 270.691406 143.855469 " fill-opacity="1" fill-rule="nonzero"/><g clip-path="url(#65812d1e17)"><path fill="#8c52ff" d="M 229.425781 84.492188 C 228.996094 83.003906 227.683594 81.949219 226.144531 81.835938 L 216.46875 81.191406 L 213.007812 72.402344 C 212.457031 70.996094 211.101562 70.070312 209.59375 70.070312 C 208.082031 70.070312 206.734375 70.996094 206.171875 72.402344 L 202.714844 81.191406 L 193.046875 81.835938 C 191.503906 81.949219 190.195312 83.003906 189.765625 84.492188 C 189.335938 85.976562 189.886719 87.566406 191.140625 88.472656 L 198.84375 94.074219 L 196.011719 103.683594 C 195.570312 105.191406 196.140625 106.816406 197.421875 107.722656 C 198.714844 108.628906 200.425781 108.613281 201.703125 107.695312 L 209.59375 101.953125 L 217.496094 107.695312 C 218.132812 108.164062 218.886719 108.394531 219.65625 108.394531 C 220.382812 108.394531 221.132812 108.171875 221.769531 107.722656 C 223.046875 106.816406 223.617188 105.191406 223.171875 103.683594 L 220.347656 94.074219 L 228.050781 88.472656 C 229.304688 87.566406 229.855469 85.976562 229.425781 84.492188 " fill-opacity="1" fill-rule="nonzero"/></g><path fill="#8c52ff" d="M 301.027344 119.90625 C 300.765625 118.980469 299.953125 118.316406 298.988281 118.25 L 292.96875 117.847656 L 290.820312 112.378906 C 290.472656 111.5 289.632812 110.929688 288.695312 110.929688 C 287.753906 110.929688 286.910156 111.5 286.566406 112.378906 L 284.414062 117.847656 L 278.402344 118.25 C 277.441406 118.316406 276.617188 118.980469 276.355469 119.90625 C 276.085938 120.820312 276.429688 121.820312 277.207031 122.382812 L 282.003906 125.859375 L 280.246094 131.851562 C 279.964844 132.789062 280.320312 133.796875 281.125 134.359375 C 281.917969 134.929688 282.992188 134.917969 283.777344 134.339844 L 288.695312 130.769531 L 293.605469 134.339844 C 294.007812 134.628906 294.472656 134.777344 294.949219 134.777344 C 295.410156 134.777344 295.875 134.640625 296.269531 134.359375 C 297.0625 133.796875 297.417969 132.789062 297.148438 131.851562 L 295.378906 125.859375 L 300.175781 122.382812 C 300.953125 121.820312 301.296875 120.820312 301.027344 119.90625 " fill-opacity="1" fill-rule="nonzero"/></svg>